<?xml version="1.0" encoding="UTF-8"?>
<svg version="1.1" xmlns="http://www.w3.org/2000/svg" width="118" height="110">
<path d="M0 0 C-0.433125 1.3303125 -0.433125 1.3303125 -0.875 2.6875 C-1.36770387 5.90570296 -1.36770387 5.90570296 0.26953125 7.51171875 C1.78648506 8.75157093 3.39036183 9.88310821 5 11 C5.66 10.34 6.32 9.68 7 9 C9.3828125 8.8046875 9.3828125 8.8046875 12.125 8.875 C13.03507812 8.89304687 13.94515625 8.91109375 14.8828125 8.9296875 C15.58148438 8.95289063 16.28015625 8.97609375 17 9 C17.4125 10.134375 17.825 11.26875 18.25 12.4375 C19.58222125 16.02842771 19.58222125 16.02842771 22 17.0625 C24.32314652 17.16622058 24.32314652 17.16622058 27 15 C30.21612136 15.1649293 31.77333571 15.8329842 34.375 17.75 C36 20 36 20 35.8125 22.5 C35.3095339 24.04758799 34.79158777 25.59050133 34.25 27.125 C33.77701246 29.06730549 33.77701246 29.06730549 35.125 30.625 C37.3049574 32.22363543 39.45730111 33.10661931 42 34 C42 35.98 42 37.96 42 40 C43.485 40.495 43.485 40.495 45 41 C44.67 42.32 44.34 43.64 44 45 C35.69001013 45.06942922 27.3801409 45.12277489 19.06993294 45.15543652 C15.21139425 45.17111039 11.3530536 45.19237955 7.49462891 45.22631836 C3.77286704 45.25885119 0.05129597 45.27684004 -3.67059708 45.28463173 C-5.0924289 45.29018625 -6.51424996 45.30103261 -7.93600082 45.31719017 C-9.92321387 45.33888117 -11.91061783 45.34022469 -13.89794922 45.34057617 C-15.03046112 45.34723801 -16.16297302 45.35389984 -17.32980347 45.36076355 C-18.21096832 45.24171158 -19.09213318 45.12265961 -20 45 C-20.66 44.01 -21.32 43.02 -22 42 C-21.67 41.34 -21.34 40.68 -21 40 C-20.01 40 -19.02 40 -18 40 C-18 38.02 -18 36.04 -18 34 C-16.865625 33.5875 -15.73125 33.175 -14.5625 32.75 C-10.97157229 31.41777875 -10.97157229 31.41777875 -9.9375 29 C-9.83377942 26.67685348 -9.83377942 26.67685348 -12 24 C-11.83707751 20.82301148 -11.15981816 19.22492926 -9.3125 16.625 C-7 15 -7 15 -3.875 15.1875 C-1 16 -1 16 1 17 C1.99 16.67 2.98 16.34 4 16 C3.236875 15.566875 2.47375 15.13375 1.6875 14.6875 C-0.58093768 13.26313215 -2.2199723 11.96739903 -4 10 C-8.98588841 11.99666365 -12.00746127 16.1056933 -15.5625 19.98046875 C-18 22 -18 22 -20.3125 21.80078125 C-20.869375 21.53652344 -21.42625 21.27226563 -22 21 C-19.70597565 15.7518956 -15.56505419 12.23602837 -11.5625 8.25 C-10.78583984 7.45722656 -10.00917969 6.66445313 -9.20898438 5.84765625 C-8.0865332 4.72423828 -8.0865332 4.72423828 -6.94140625 3.578125 C-6.25763916 2.89137695 -5.57387207 2.20462891 -4.86938477 1.49707031 C-3 0 -3 0 0 0 Z M10 13 C9.773125 13.94875 9.54625 14.8975 9.3125 15.875 C8 19 8 19 5.9375 20.4375 C1.82809917 21.22440654 -1.89776539 20.66136244 -6 20 C-6.59070014 21.94603274 -6.59070014 21.94603274 -7 24 C-6.67 24.33 -6.34 24.66 -6 25 C-6.38859359 28.49734228 -6.88596087 31.65788261 -8 35 C-11.0625 36.1875 -11.0625 36.1875 -14 37 C-14 37.99 -14 38.98 -14 40 C-10.37 40 -6.74 40 -3 40 C-2.62875 38.618125 -2.2575 37.23625 -1.875 35.8125 C-0.23967085 30.86757613 1.69869074 28.8675395 6 26 C6.99 25.67 7.98 25.34 9 25 C9.33 25.66 9.66 26.32 10 27 C10.33 26.34 10.66 25.68 11 25 C15.95132911 25.62565814 19.17753607 26.247533 22.9375 29.6875 C25.15349701 33.24652551 26.10748724 35.9431238 27 40 C30.63 40 34.26 40 38 40 C38 39.01 38 38.02 38 37 C36.576875 36.6596875 36.576875 36.6596875 35.125 36.3125 C32 35 32 35 30.625 32.6875 C29.65252768 28.50586902 29.78308252 25.10709649 31 21 C28.32522818 20.07411745 26.89670048 20.01978076 24.0625 20.5625 C20.53173657 21.06689478 19.00264551 20.91835685 16 19 C14.6875 15.875 14.6875 15.875 14 13 C12.68 13 11.36 13 10 13 Z M3 33 C2.67 35.31 2.34 37.62 2 40 C8.6 40 15.2 40 22 40 C21.70166845 33.21261419 21.70166845 33.21261419 18.3125 30.0625 C11.85228928 26.04010465 8.02966326 27.50246109 3 33 Z " fill="#fff" transform="translate(46,44)"/>
<path d="M0 0 C1.02802734 -0.01224609 2.05605469 -0.02449219 3.11523438 -0.03710938 C4.58766602 -0.04000977 4.58766602 -0.04000977 6.08984375 -0.04296875 C6.99468506 -0.04707764 7.89952637 -0.05118652 8.83178711 -0.05541992 C11.0625 0.1875 11.0625 0.1875 13.0625 2.1875 C13.30541992 4.31054688 13.30541992 4.31054688 13.29296875 6.90625 C13.29103516 7.83824219 13.28910156 8.77023438 13.28710938 9.73046875 C13.27486328 10.70628906 13.26261719 11.68210937 13.25 12.6875 C13.2490332 14.15123047 13.2490332 14.15123047 13.24804688 15.64453125 C13.20284598 22.90680804 13.20284598 22.90680804 12.0625 25.1875 C8.68439888 24.58426766 6.73994188 23.28557945 4.0625 21.1875 C3.21945313 22.05375 2.37640625 22.92 1.5078125 23.8125 C0.40130643 24.93776041 -0.70547888 26.06274628 -1.8125 27.1875 C-2.36808594 27.75984375 -2.92367187 28.3321875 -3.49609375 28.921875 C-4.93884404 30.38200782 -6.4349374 31.78899298 -7.9375 33.1875 C-8.5975 33.1875 -9.2575 33.1875 -9.9375 33.1875 C-9.9375 34.1775 -9.9375 35.1675 -9.9375 36.1875 C-11.2575 36.1875 -12.5775 36.1875 -13.9375 36.1875 C-13.9375 34.8675 -13.9375 33.5475 -13.9375 32.1875 C-12.9475 32.1875 -11.9575 32.1875 -10.9375 32.1875 C-10.84662109 31.35992187 -10.84662109 31.35992187 -10.75390625 30.515625 C-9.57626523 27.15737598 -7.42259669 25.38835251 -4.875 22.9375 C-3.95589844 22.04546875 -3.03679687 21.1534375 -2.08984375 20.234375 C-1.37957031 19.55890625 -0.66929688 18.8834375 0.0625 18.1875 C-1.30733503 15.02634224 -1.9265638 14.1947908 -4.9375 12.1875 C-7.14758579 14.20866393 -9.32838722 16.25070045 -11.5 18.3125 C-12.12841797 18.88226563 -12.75683594 19.45203125 -13.40429688 20.0390625 C-15.12048449 21.6896036 -16.62106526 23.20181632 -17.9375 25.1875 C-18.01634233 28.53145788 -18.01634233 28.53145788 -16.9375 31.1875 C-20.97407082 30.67264682 -22.88964477 29.72397628 -25.70703125 26.80859375 C-26.69799805 25.79829102 -26.69799805 25.79829102 -27.70898438 24.76757812 C-28.38251953 24.06052734 -29.05605469 23.35347656 -29.75 22.625 C-30.44287109 21.91408203 -31.13574219 21.20316406 -31.84960938 20.47070312 C-33.5549517 18.71831688 -35.25025176 16.95728531 -36.9375 15.1875 C-41.8777256 17.45720989 -44.85949741 21.20004291 -48.5 25.16796875 C-50.9375 27.1875 -50.9375 27.1875 -53.25 26.98828125 C-53.806875 26.72402344 -54.36375 26.45976563 -54.9375 26.1875 C-53.5790798 23.14417235 -52.05286976 21.06440849 -49.6796875 18.734375 C-49.05449219 18.115625 -48.42929687 17.496875 -47.78515625 16.859375 C-47.13417969 16.22515625 -46.48320313 15.5909375 -45.8125 14.9375 C-45.15378906 14.2878125 -44.49507812 13.638125 -43.81640625 12.96875 C-42.19453357 11.37038273 -40.5681719 9.77688103 -38.9375 8.1875 C-36.11871988 9.46924718 -34.08508504 10.79757615 -31.921875 13.0078125 C-31.39335938 13.54277344 -30.86484375 14.07773437 -30.3203125 14.62890625 C-29.78148438 15.18449219 -29.24265625 15.74007812 -28.6875 16.3125 C-28.13320313 16.87582031 -27.57890625 17.43914063 -27.0078125 18.01953125 C-25.64645515 19.40436028 -24.29135141 20.79533204 -22.9375 22.1875 C-18.01814098 18.07130164 -13.41102044 13.78339638 -8.9375 9.1875 C-9.25332031 8.57261719 -9.56914063 7.95773438 -9.89453125 7.32421875 C-10.90261559 5.25896732 -11.54758802 3.44898951 -11.9375 1.1875 C-9.51933834 -1.23066166 -3.24972181 0.00202981 0 0 Z M-3.9375 5.1875 C-0.20454728 9.72037116 3.44736548 13.56132288 8.0625 17.1875 C8.0625 13.2275 8.0625 9.2675 8.0625 5.1875 C4.1025 5.1875 0.1425 5.1875 -3.9375 5.1875 Z " fill="#fff" transform="translate(78.9375,20.8125)"/>
</svg>
