<?xml version="1.0" encoding="UTF-8"?>
<svg version="1.1" xmlns="http://www.w3.org/2000/svg" width="118" height="110">
<path d="M0 0 C2.12438339 -0.08078641 4.2496323 -0.13909141 6.375 -0.1875 C7.55835937 -0.22230469 8.74171875 -0.25710938 9.9609375 -0.29296875 C11.46527344 -0.14794922 11.46527344 -0.14794922 13 0 C15 3 15 3 15 6 C16.216875 5.835 17.43375 5.67 18.6875 5.5 C21.52524535 5.4848788 22.58671699 5.59653369 24.64453125 7.60546875 C26.63868842 10.66854014 27.87180848 13.26289879 28.5 16.875 C28 19 28 19 25 21 C25 21.66 25 22.32 25 23 C26.98 23.99 28.96 24.98 31 26 C31.144375 25.030625 31.28875 24.06125 31.4375 23.0625 C32 20 32 20 33 19 C35.16480797 18.9010706 37.33293785 18.870289 39.5 18.875 C40.6859375 18.87242188 41.871875 18.86984375 43.09375 18.8671875 C46 19 46 19 47 20 C47.04080783 21.99958364 47.04254356 24.00045254 47 26 C47.7425 25.649375 48.485 25.29875 49.25 24.9375 C52.25132029 23.91432263 53.13251338 23.81268132 56 25 C57.484375 26.92578125 57.484375 26.92578125 58.75 29.3125 C59.17796875 30.09238281 59.6059375 30.87226562 60.046875 31.67578125 C61 34 61 34 61 38 C60.01 38.66 59.02 39.32 58 40 C58 40.66 58 41.32 58 42 C59.485 42.99 59.485 42.99 61 44 C60.48316747 49.2975334 58.97319519 52.66762987 56 57 C54.0625 58.0625 54.0625 58.0625 52 58 C49.25 57.0625 49.25 57.0625 47 56 C47.020625 56.969375 47.04125 57.93875 47.0625 58.9375 C47 62 47 62 46 63 C43.8579034 63.15154969 41.70976538 63.22177745 39.5625 63.25 C38.38816406 63.27578125 37.21382812 63.3015625 36.00390625 63.328125 C35.01261719 63.21984375 34.02132812 63.1115625 33 63 C31 60 31 60 31 57 C28.525 57.495 28.525 57.495 26 58 C25.67 58.99 25.34 59.98 25 61 C25.99 61.66 26.98 62.32 28 63 C27.48474397 68.28137429 25.74522883 71.57221156 23 76 C20.36 75.67 17.72 75.34 15 75 C14.855625 75.969375 14.71125 76.93875 14.5625 77.9375 C14 81 14 81 13 82 C10.81360547 82.07258946 8.62499611 82.08373783 6.4375 82.0625 C5.23996094 82.05347656 4.04242188 82.04445313 2.80859375 82.03515625 C1.41833984 82.01775391 1.41833984 82.01775391 0 82 C-0.66 79.69 -1.32 77.38 -2 75 C-4.64 75.33 -7.28 75.66 -10 76 C-10.87191947 74.61518672 -11.72190384 73.21654754 -12.5625 71.8125 C-13.03816406 71.03519531 -13.51382812 70.25789063 -14.00390625 69.45703125 C-15.20793099 66.48710356 -15.03184431 65.00220027 -14 62 C-13.01 61.505 -13.01 61.505 -12 61 C-11.67 60.01 -11.34 59.02 -11 58 C-12.32 57.34 -13.64 56.68 -15 56 C-14.51675181 50.84535266 -11.81389239 47.18449681 -9 43 C-6.23723823 43.52268466 -3.6739124 44.10869587 -1 45 C-1 42.36 -1 39.72 -1 37 C-1.7425 37.350625 -2.485 37.70125 -3.25 38.0625 C-6.25008279 39.0852555 -7.1232207 39.14059804 -10 38 C-12.8252478 34.81787879 -14.77128623 31.31510417 -15.5 27.125 C-15 25 -15 25 -12 23 C-12 22.34 -12 21.68 -12 21 C-12.99 20.34 -13.98 19.68 -15 19 C-14.48474397 13.71862571 -12.74522883 10.42778844 -10 6 C-7.36 6.33 -4.72 6.66 -2 7 C-1.34 4.69 -0.68 2.38 0 0 Z M5 6 C4.938125 6.763125 4.87625 7.52625 4.8125 8.3125 C4 11 4 11 1.75 12.875 C-1.38560417 14.15774716 -2.81744196 14.00023253 -6 13 C-6.66 13.99 -7.32 14.98 -8 16 C-6.515 16.99 -6.515 16.99 -5 18 C-4.01 19.485 -4.01 19.485 -3 21 C-2.4225 20.79375 -1.845 20.5875 -1.25 20.375 C1 20 1 20 5 22 C7.64 19.36 10.28 16.72 13 14 C11.68 13.01 10.36 12.02 9 11 C8.25 8.3125 8.25 8.3125 8 6 C7.01 6 6.02 6 5 6 Z M19 13 C18.01 13.99 17.02 14.98 16 16 C16.66 16.66 17.32 17.32 18 18 C18.99 17.01 19.98 16.02 21 15 C20.34 14.34 19.68 13.68 19 13 Z M16 19 C13.52023944 21.61293289 11.07429935 24.25424517 8.640625 26.91015625 C6 29 6 29 3.34765625 28.96875 C0.14079182 27.64545153 -1.70649749 25.55561708 -4 23 C-4 24.32 -4 25.64 -4 27 C-4.99 27.33 -5.98 27.66 -7 28 C-7 28.99 -7 29.98 -7 31 C-5.948125 30.95875 -4.89625 30.9175 -3.8125 30.875 C-0.25989827 30.99147875 1.84866641 31.47208068 5 33 C5 34.65 5 36.3 5 38 C5.99 38 6.98 38 8 38 C8.268125 37.21625 8.53625 36.4325 8.8125 35.625 C10 33 10 33 13 31 C15.33199388 30.92094936 17.66832622 30.91201231 20 31 C20.33 30.01 20.66 29.02 21 28 C20.01 27.34 19.02 26.68 18 26 C17.3125 22.375 17.3125 22.375 17 19 C16.67 19 16.34 19 16 19 Z M38 25 C37.731875 25.78375 37.46375 26.5675 37.1875 27.375 C36 30 36 30 33 32 C30.66800612 32.07905064 28.33167378 32.08798769 26 32 C25.67 32.99 25.34 33.98 25 35 C27.18900586 37.1687189 27.18900586 37.1687189 30 39 C32.75124253 38.86850174 32.75124253 38.86850174 35 38 C35.33 38.99 35.66 39.98 36 41 C39.21043882 39.61811547 41.04936365 38.07578097 43.25 35.375 C43.77078125 34.74335937 44.2915625 34.11171875 44.828125 33.4609375 C45.21484375 32.97882812 45.6015625 32.49671875 46 32 C45.35546875 31.72414063 44.7109375 31.44828125 44.046875 31.1640625 C42 30 42 30 41.25 27.375 C41.1675 26.59125 41.085 25.8075 41 25 C40.01 25 39.02 25 38 25 Z M48 34 C49.98 34.99 49.98 34.99 52 36 C52 34.68 52 33.36 52 32 C50.53774984 31.90754997 50.53774984 31.90754997 48 34 Z M15 37 C15 39.64 15 42.28 15 45 C16.98 44.34 18.96 43.68 21 43 C21 41.68 21 40.36 21 39 C19.02 38.34 17.04 37.68 15 37 Z M49 37 C47.84658292 38.24509895 46.72725292 39.52188741 45.625 40.8125 C40.85414782 46.38526138 40.85414782 46.38526138 39 48 C35.21700564 48 34.01356127 47.01235583 31.1875 44.4375 C30.465625 43.633125 29.74375 42.82875 29 42 C28.71125 42.639375 28.4225 43.27875 28.125 43.9375 C27 46 27 46 25 47 C25.33 47.99 25.66 48.98 26 50 C26.763125 49.79375 27.52625 49.5875 28.3125 49.375 C31 49 31 49 34 51 C34.99 51 35.98 51 37 51 C37.33 52.98 37.66 54.96 38 57 C38.99 57 39.98 57 41 57 C41.020625 56.236875 41.04125 55.47375 41.0625 54.6875 C42 52 42 52 45.375 50.125 C49 49 49 49 52 50 C52.66 49.01 53.32 48.02 54 47 C53.01 46.34 52.02 45.68 51 45 C50.29947539 42.336937 50.22255182 39.75964263 50 37 C49.67 37 49.34 37 49 37 Z M5 44 C4.731875 44.78375 4.46375 45.5675 4.1875 46.375 C3 49 3 49 0 51 C-2.33199388 51.07905064 -4.66832622 51.08798769 -7 51 C-7 51.99 -7 52.98 -7 54 C-6.01 54.495 -6.01 54.495 -5 55 C-3.875 57.0625 -3.875 57.0625 -3 59 C-3 58.34 -3 57.68 -3 57 C-1.6078125 57.495 -1.6078125 57.495 -0.1875 58 C2.92029291 59.14967004 2.92029291 59.14967004 6 59 C8.11775458 57.46551795 8.11775458 57.46551795 10.1875 55.5 C10.90292969 54.8503125 11.61835937 54.200625 12.35546875 53.53125 C12.89816406 53.0259375 13.44085938 52.520625 14 52 C13.195625 51.4225 12.39125 50.845 11.5625 50.25 C9.02133261 48.01873107 8.34879632 47.25543229 8 44 C7.01 44 6.02 44 5 44 Z M16 52 C16.66 53.32 17.32 54.64 18 56 C18 55.34 18 54.68 18 54 C18.66 54 19.32 54 20 54 C20 53.01 20 52.02 20 51 C17.9254644 50.8509288 17.9254644 50.8509288 16 52 Z M16 56 C14.24214076 57.9424114 12.57128879 59.9508947 10.88671875 61.95703125 C9.05943024 63.935648 7.20157506 65.45938346 5 67 C1.56404834 65.47291037 -1.11912454 63.40072955 -4 61 C-6.25885324 64.25397508 -6.25885324 64.25397508 -7 68 C-6.113125 67.938125 -5.22625 67.87625 -4.3125 67.8125 C-0.58739096 68.02335523 1.10437976 68.68350381 4 71 C4.8125 73.1875 4.8125 73.1875 5 75 C5.99 75 6.98 75 8 75 C8.061875 74.401875 8.12375 73.80375 8.1875 73.1875 C9 71 9 71 11.1875 69.1875 C14.59289113 67.74966819 16.47078888 68.09717855 20 69 C20.33 68.01 20.66 67.02 21 66 C20.01 65.34 19.02 64.68 18 64 C17.29947539 61.336937 17.22255182 58.75964263 17 56 C16.67 56 16.34 56 16 56 Z " fill="#fff" transform="translate(36,14)"/>
</svg>
