<?xml version="1.0" encoding="UTF-8"?>
<svg version="1.1" xmlns="http://www.w3.org/2000/svg" width="118" height="110">
<path d="M0 0 C1.07109009 0.00277954 1.07109009 0.00277954 2.16381836 0.00561523 C2.94950195 0.0049707 3.73518555 0.00432617 4.54467773 0.00366211 C5.761875 0.03363281 5.761875 0.03363281 7.00366211 0.06420898 C7.81899414 0.05711914 8.63432617 0.0500293 9.47436523 0.04272461 C15.44632937 0.10651716 15.44632937 0.10651716 17.69677734 1.90380859 C18.94116211 3.50170898 18.94116211 3.50170898 18.94116211 5.50170898 C24.22116211 5.50170898 29.50116211 5.50170898 34.94116211 5.50170898 C34.94116211 27.61170898 34.94116211 49.72170898 34.94116211 72.50170898 C28.67116211 72.50170898 22.40116211 72.50170898 15.94116211 72.50170898 C15.61116211 77.45170898 15.28116211 82.40170898 14.94116211 87.50170898 C9.66116211 87.50170898 4.38116211 87.50170898 -1.05883789 87.50170898 C-1.38883789 82.55170898 -1.71883789 77.60170898 -2.05883789 72.50170898 C-8.32883789 72.50170898 -14.59883789 72.50170898 -21.05883789 72.50170898 C-21.05883789 50.39170898 -21.05883789 28.28170898 -21.05883789 5.50170898 C-16.10883789 5.17170898 -11.15883789 4.84170898 -6.05883789 4.50170898 C-2.05883789 0.50170898 -2.05883789 0.50170898 0 0 Z M-0.05883789 7.50170898 C-0.05883789 8.49170898 -0.05883789 9.48170898 -0.05883789 10.50170898 C4.56116211 10.50170898 9.18116211 10.50170898 13.94116211 10.50170898 C13.28116211 9.18170898 12.62116211 7.86170898 11.94116211 6.50170898 C10.31625257 6.47472709 8.69121578 6.45532141 7.06616211 6.43920898 C6.16124023 6.42760742 5.25631836 6.41600586 4.32397461 6.40405273 C1.92430361 6.33921641 1.92430361 6.33921641 -0.05883789 7.50170898 Z M-15.05883789 11.50170898 C-15.05883789 29.32170898 -15.05883789 47.14170898 -15.05883789 65.50170898 C-10.43883789 65.50170898 -5.81883789 65.50170898 -1.05883789 65.50170898 C-1.05883789 63.85170898 -1.05883789 62.20170898 -1.05883789 60.50170898 C0.59116211 60.50170898 2.24116211 60.50170898 3.94116211 60.50170898 C3.94116211 59.18170898 3.94116211 57.86170898 3.94116211 56.50170898 C3.26569336 56.22198242 2.59022461 55.94225586 1.89428711 55.65405273 C-7.2137718 51.560691 -7.2137718 51.560691 -9.50805664 46.59155273 C-10.9789858 41.01036764 -10.7488725 35.57181281 -8.93383789 30.12670898 C-6.02550578 26.05504403 -2.89849551 23.11492819 1.94116211 21.50170898 C7.91005492 20.96748794 12.87709909 20.96864176 17.94116211 24.50170898 C22.334679 28.87134807 24.08957499 32.5682156 24.25366211 38.75170898 C24.16542654 43.89652131 23.74962361 47.81764447 19.94116211 51.50170898 C16.7265879 53.48184639 13.42650174 55.05835269 9.94116211 56.50170898 C9.94116211 57.82170898 9.94116211 59.14170898 9.94116211 60.50170898 C11.59116211 60.50170898 13.24116211 60.50170898 14.94116211 60.50170898 C14.94116211 62.15170898 14.94116211 63.80170898 14.94116211 65.50170898 C19.56116211 65.50170898 24.18116211 65.50170898 28.94116211 65.50170898 C28.94116211 47.68170898 28.94116211 29.86170898 28.94116211 11.50170898 C25.97116211 11.50170898 23.00116211 11.50170898 19.94116211 11.50170898 C19.94116211 13.15170898 19.94116211 14.80170898 19.94116211 16.50170898 C11.36116211 16.50170898 2.78116211 16.50170898 -6.05883789 16.50170898 C-6.05883789 14.85170898 -6.05883789 13.20170898 -6.05883789 11.50170898 C-9.02883789 11.50170898 -11.99883789 11.50170898 -15.05883789 11.50170898 Z M-1.05883789 29.50170898 C-3.60057605 31.87399793 -4.05255053 33.47745772 -4.93383789 36.87670898 C-5.07927659 41.09443128 -4.36510666 43.00254258 -2.05883789 46.50170898 C1.15769738 49.83312052 4.38439565 50.34457911 8.94116211 50.50170898 C13.07803233 48.99016025 15.81878852 47.41134454 17.94116211 43.50170898 C19.15675953 39.59443156 19.02104455 37.74976499 17.75366211 33.81420898 C15.38068862 29.47739537 13.80098582 28.08032081 9.12866211 26.62670898 C4.98704783 26.46429274 2.55700849 27.523227 -1.05883789 29.50170898 Z M4.94116211 66.50170898 C4.94116211 71.12170898 4.94116211 75.74170898 4.94116211 80.50170898 C6.26116211 80.50170898 7.58116211 80.50170898 8.94116211 80.50170898 C8.94116211 75.88170898 8.94116211 71.26170898 8.94116211 66.50170898 C7.62116211 66.50170898 6.30116211 66.50170898 4.94116211 66.50170898 Z " fill="#fff" transform="translate(52.058837890625,9.498291015625)"/>
<path d="M0 0 C2.27860147 1.3357319 2.73146309 2.70517283 3.8125 5.0625 C2.07711877 6.93252288 0.3265665 8.78238092 -1.4375 10.625 C-2.17419922 11.42454102 -2.17419922 11.42454102 -2.92578125 12.24023438 C-4.390625 13.75390625 -4.390625 13.75390625 -7.1875 16.0625 C-10.61576189 16.0625 -11.35135132 14.90982036 -13.9375 12.5 C-14.68 11.695625 -15.4225 10.89125 -16.1875 10.0625 C-15.4375 8.125 -15.4375 8.125 -14.1875 6.0625 C-11.69279228 5.09680669 -9.89004461 5.0625 -7.1875 5.0625 C-6.383125 4.216875 -5.57875 3.37125 -4.75 2.5 C-2.1875 0.0625 -2.1875 0.0625 0 0 Z " fill="#fff" transform="translate(65.1875,40.9375)"/>
</svg>
