<?xml version="1.0" encoding="UTF-8"?>
<svg version="1.1" xmlns="http://www.w3.org/2000/svg" width="253" height="254">
<path d="M0 0 C1.24725861 -0.01292336 1.24725861 -0.01292336 2.51971436 -0.02610779 C5.26085781 -0.04876056 8.00097843 -0.04203082 10.7421875 -0.03295898 C12.65120752 -0.03819461 14.56022494 -0.04447086 16.46923828 -0.05174255 C20.46724636 -0.06214526 24.46489848 -0.05758672 28.46289062 -0.04296875 C33.58453204 -0.02577452 38.70505228 -0.04928467 43.8265686 -0.08445835 C47.76773503 -0.10642471 51.7086328 -0.10499284 55.64984131 -0.09669304 C57.53807811 -0.09587323 59.42633457 -0.10274233 61.31451416 -0.11746407 C63.95516799 -0.13489775 66.59380221 -0.120379 69.234375 -0.09765625 C70.01270691 -0.10934845 70.79103882 -0.12104065 71.59295654 -0.13308716 C75.59948901 -0.06299041 77.41498195 0.37269298 80.59033203 2.89710999 C82.65802993 5.58657114 83.33068643 7.19093479 83.6171875 10.53344727 C84.5659375 10.49219727 85.5146875 10.45094727 86.4921875 10.40844727 C89.6171875 10.53344727 89.6171875 10.53344727 91.6171875 12.53344727 C92.11081845 16.8570841 92.11666788 21.19614467 92.15258789 25.54443359 C92.17939129 27.69715746 92.25421934 29.84486408 92.33007812 31.99633789 C92.3467484 33.37716432 92.36051038 34.75802952 92.37109375 36.13891602 C92.39502197 37.38825928 92.4189502 38.63760254 92.44360352 39.92480469 C91.52170579 43.95037937 91.17632085 44.0569547 88.11987305 46.38598633 C84.83807596 49.38975841 84.12841117 51.83060949 83.83906269 56.25089645 C83.72989038 60.26600647 83.76283882 64.27167125 83.8203125 68.28735352 C83.81854338 70.03418153 83.81325898 71.78100919 83.80462646 73.52781677 C83.78940305 78.11421369 83.81316611 82.69950577 83.84783936 87.2857666 C83.89839498 94.62861243 83.89664913 101.97141164 83.88143158 109.31437492 C83.88279143 111.87270523 83.90510778 114.4302226 83.92999268 116.98841858 C83.93343796 118.56275308 83.93629699 120.13708902 83.93847656 121.71142578 C83.95712517 122.77063484 83.95712517 122.77063484 83.97615051 123.85124207 C83.95921246 128.48677541 83.25354283 131.69795407 80.6171875 135.53344727 C76.10538614 138.64203842 71.92416122 138.96617596 66.59570312 138.92163086 C65.81442551 138.92688782 65.03314789 138.93214478 64.22819519 138.93756104 C61.65973595 138.95070571 59.09190245 138.94204283 56.5234375 138.93188477 C54.73034548 138.9339071 52.93725426 138.93681986 51.14416504 138.94058228 C47.3917658 138.94499813 43.63958125 138.93859841 39.88720703 138.92456055 C35.08542033 138.90746908 30.28413673 138.91731423 25.48236847 138.93527794 C21.78139478 138.94613576 18.08053971 138.94266027 14.37956238 138.93489456 C12.60938965 138.93289808 10.83920603 138.93533239 9.06904602 138.94233322 C6.59196582 138.9499807 4.11569224 138.93829791 1.63867188 138.92163086 C0.91225998 138.92770355 0.18584808 138.93377625 -0.56257629 138.94003296 C-5.2262308 138.88211093 -8.4083261 137.96496457 -12.3828125 135.53344727 C-15.23056291 132.03848085 -14.42629107 127.82478182 -14.3828125 123.53344727 C-15.5171875 123.6146582 -16.6515625 123.69586914 -17.8203125 123.77954102 C-31.52894757 124.46801238 -31.52894757 124.46801238 -36.1328125 120.34594727 C-37.24828282 119.10322669 -38.32986847 117.82957123 -39.3828125 116.53344727 C-40.22928848 115.86528488 -41.07576447 115.1971225 -41.94789124 114.50871277 C-45.3678577 110.32980629 -45.06822245 107.15673056 -44.98217773 101.90966797 C-44.98612045 100.94654694 -44.99006317 99.9834259 -44.99412537 98.99111938 C-45.00082895 95.81329045 -44.97169145 92.63690324 -44.94140625 89.45922852 C-44.93715616 87.25156432 -44.93482758 85.04389565 -44.93434143 82.83622742 C-44.92817784 78.21352846 -44.90548176 73.5913144 -44.86987305 68.96875 C-44.82452138 63.03328652 -44.80984294 57.09826131 -44.80613613 51.16264057 C-44.8017157 46.60655874 -44.7864276 42.05056954 -44.7672596 37.49452782 C-44.75836085 35.30518546 -44.75163891 33.11583317 -44.74709892 30.92647743 C-44.73809208 27.87382865 -44.71573453 24.82158327 -44.68920898 21.76904297 C-44.68854431 20.85836563 -44.68787964 19.94768829 -44.68719482 19.00941467 C-44.61198576 12.76262053 -44.61198576 12.76262053 -42.3828125 10.53344727 C-39.58544922 10.30639648 -39.58544922 10.30639648 -36.0625 10.33813477 C-34.17724609 10.34780273 -34.17724609 10.34780273 -32.25390625 10.35766602 C-30.27583984 10.38280273 -30.27583984 10.38280273 -28.2578125 10.40844727 C-26.91797529 10.41847744 -25.57813098 10.42760323 -24.23828125 10.43579102 C-20.95294677 10.45942652 -17.66796785 10.49237493 -14.3828125 10.53344727 C-14.29 9.17219727 -14.29 9.17219727 -14.1953125 7.78344727 C-12.35725339 0.43121084 -6.68586707 -0.05605727 0 0 Z M-8.3828125 7.53344727 C-8.4784286 8.98826222 -8.50469601 10.44770212 -8.50306702 11.90565491 C-8.50444168 12.84941483 -8.50581635 13.79317474 -8.50723267 14.76553345 C-8.50363739 15.80922089 -8.50004211 16.85290833 -8.49633789 17.92822266 C-8.49648392 19.02076859 -8.49662994 20.11331451 -8.4967804 21.2389679 C-8.49608072 24.86969959 -8.48828579 28.50038072 -8.48046875 32.13110352 C-8.47860476 34.6407417 -8.47718077 37.15038024 -8.47618103 39.66001892 C-8.47274598 45.6027932 -8.46485523 51.5455511 -8.45483154 57.48831695 C-8.44257503 64.91546651 -8.43719042 72.34261831 -8.43164062 79.76977539 C-8.42090061 93.024342 -8.40401332 106.27889348 -8.3828125 119.53344727 C2.38718983 119.60289187 13.15713909 119.65623033 23.92731953 119.68888378 C28.92810779 119.70455411 33.92874312 119.7258173 38.92944336 119.75976562 C43.75346064 119.79231035 48.57733063 119.81028998 53.4014492 119.81807899 C55.24390164 119.8236313 57.08634583 119.83447334 58.92873573 119.85063744 C61.50515934 119.87234692 64.08097067 119.87541694 66.6574707 119.87402344 C67.80545891 119.89020218 67.80545891 119.89020218 68.97663879 119.90670776 C72.89154117 119.94910924 72.89154117 119.94910924 76.31328392 118.28606892 C77.95755582 116.0759465 77.99199642 114.86923682 77.9914093 112.1307373 C77.99842361 111.23063431 78.00543793 110.33053131 78.01266479 109.40315247 C78.00502106 108.41812241 77.99737732 107.43309235 77.98950195 106.41821289 C77.99315262 105.37896164 77.99680328 104.33971039 78.00056458 103.26896667 C78.00868595 99.82571184 77.99504645 96.38292526 77.98046875 92.93969727 C77.97995034 90.55220541 77.98046731 88.16471312 77.98197937 85.77722168 C77.98188958 80.77028035 77.97144516 75.76349979 77.95336914 70.7565918 C77.93068188 64.3301951 77.93013715 57.90403345 77.93688679 51.47760773 C77.94022412 46.54662986 77.9336011 41.61570583 77.92375755 36.68473816 C77.9199012 34.31479677 77.91875913 31.94484939 77.9203434 29.5749054 C77.92071318 26.26604752 77.9081181 22.95749393 77.8918457 19.64868164 C77.89432312 18.66365158 77.89680054 17.67862152 77.89935303 16.66374207 C77.89226822 15.76363907 77.88518341 14.86353607 77.87788391 13.93615723 C77.87583104 13.15376427 77.87377817 12.37137131 77.87166309 11.56526947 C77.73181763 9.22114483 77.73181763 9.22114483 75.6171875 6.53344727 C72.93072471 6.24177243 70.47493244 6.14472207 67.78686523 6.17700195 C66.57451706 6.17393539 66.57451706 6.17393539 65.337677 6.17080688 C62.65848377 6.16779169 59.9799016 6.18629638 57.30078125 6.20532227 C55.44515638 6.20837844 53.58952922 6.21025564 51.73390198 6.21099854 C47.84245037 6.21560609 43.95120519 6.23005028 40.05981445 6.25219727 C35.06026728 6.28049966 30.06088276 6.29141014 25.06126308 6.29587936 C21.22925677 6.30002699 17.39728367 6.30983862 13.56529427 6.32175446 C11.72121511 6.32746965 9.87713273 6.33222419 8.03304863 6.33602142 C5.46134643 6.34286156 2.88977578 6.35648262 0.31811523 6.37231445 C-0.4512587 6.37343231 -1.22063263 6.37455017 -2.01332092 6.3757019 C-5.48947385 6.08976974 -5.48947385 6.08976974 -8.3828125 7.53344727 Z M-38.3828125 16.53344727 C-38.3828125 46.23344727 -38.3828125 75.93344727 -38.3828125 106.53344727 C-35.0828125 106.86344727 -31.7828125 107.19344727 -28.3828125 107.53344727 C-28.0528125 110.83344727 -27.7228125 114.13344727 -27.3828125 117.53344727 C-23.0928125 117.53344727 -18.8028125 117.53344727 -14.3828125 117.53344727 C-14.3828125 106.64344727 -14.3828125 95.75344727 -14.3828125 84.53344727 C-21.3128125 84.03844727 -21.3128125 84.03844727 -28.3828125 83.53344727 C-28.0528125 82.21344727 -27.7228125 80.89344727 -27.3828125 79.53344727 C-20.9478125 79.03844727 -20.9478125 79.03844727 -14.3828125 78.53344727 C-14.3828125 76.55344727 -14.3828125 74.57344727 -14.3828125 72.53344727 C-18.6728125 72.20344727 -22.9628125 71.87344727 -27.3828125 71.53344727 C-27.7128125 70.21344727 -28.0428125 68.89344727 -28.3828125 67.53344727 C-23.7628125 67.20344727 -19.1428125 66.87344727 -14.3828125 66.53344727 C-14.3828125 64.22344727 -14.3828125 61.91344727 -14.3828125 59.53344727 C-19.3328125 59.20344727 -24.2828125 58.87344727 -29.3828125 58.53344727 C-29.0528125 57.21344727 -28.7228125 55.89344727 -28.3828125 54.53344727 C-23.7628125 54.20344727 -19.1428125 53.87344727 -14.3828125 53.53344727 C-14.3828125 51.22344727 -14.3828125 48.91344727 -14.3828125 46.53344727 C-21.3128125 46.03844727 -21.3128125 46.03844727 -28.3828125 45.53344727 C-28.7128125 44.21344727 -29.0428125 42.89344727 -29.3828125 41.53344727 C-24.4328125 41.20344727 -19.4828125 40.87344727 -14.3828125 40.53344727 C-14.3828125 32.61344727 -14.3828125 24.69344727 -14.3828125 16.53344727 C-22.3028125 16.53344727 -30.2228125 16.53344727 -38.3828125 16.53344727 Z M82.6171875 16.53344727 C82.9471875 24.78344727 83.2771875 33.03344727 83.6171875 41.53344727 C84.2771875 41.20344727 84.9371875 40.87344727 85.6171875 40.53344727 C85.6171875 32.61344727 85.6171875 24.69344727 85.6171875 16.53344727 C84.6271875 16.53344727 83.6371875 16.53344727 82.6171875 16.53344727 Z M75.6171875 124.53344727 C74.9571875 126.84344727 74.2971875 129.15344727 73.6171875 131.53344727 C74.6071875 131.53344727 75.5971875 131.53344727 76.6171875 131.53344727 C76.9471875 129.22344727 77.2771875 126.91344727 77.6171875 124.53344727 C76.9571875 124.53344727 76.2971875 124.53344727 75.6171875 124.53344727 Z M-7.3828125 125.53344727 C-7.7128125 127.18344727 -8.0428125 128.83344727 -8.3828125 130.53344727 C-7.3928125 130.86344727 -6.4028125 131.19344727 -5.3828125 131.53344727 C-5.7128125 129.55344727 -6.0428125 127.57344727 -6.3828125 125.53344727 C-6.7128125 125.53344727 -7.0428125 125.53344727 -7.3828125 125.53344727 Z M-4.3828125 131.53344727 C-4.3828125 131.86344727 -4.3828125 132.19344727 -4.3828125 132.53344727 C21.3571875 132.53344727 47.0971875 132.53344727 73.6171875 132.53344727 C73.6171875 132.20344727 73.6171875 131.87344727 73.6171875 131.53344727 C47.8771875 131.53344727 22.1371875 131.53344727 -4.3828125 131.53344727 Z " fill="#fff" transform="translate(103.3828125,68.466552734375)"/>
<path d="M0 0 C2.125 0.9375 2.125 0.9375 4 2 C4 3.65 4 5.3 4 7 C9.94 7 15.88 7 22 7 C29.9104251 26.36690283 29.9104251 26.36690283 29 33 C27.13291495 35.36497439 25.67938569 36.66030715 23 38 C18.66672826 38.49055907 16.67999656 38.47744439 13.0625 35.9375 C10.36800015 32.099879 10.33591339 30.64860626 11 26 C12.1847108 21.94249261 13.54106128 17.96648964 15 14 C9.555 13.505 9.555 13.505 4 13 C4 24.88 4 36.76 4 49 C8.95 49 13.9 49 19 49 C19.66 49.66 20.32 50.32 21 51 C20.67 52.32 20.34 53.64 20 55 C7.46 55 -5.08 55 -18 55 C-18.33 53.35 -18.66 51.7 -19 50 C-18.505 49.505 -18.505 49.505 -18 49 C-12.72 49 -7.44 49 -2 49 C-2 37.12 -2 25.24 -2 13 C-5.96 13 -9.92 13 -14 13 C-13.44119141 14.39412109 -13.44119141 14.39412109 -12.87109375 15.81640625 C-12.39239262 17.06478371 -11.91457491 18.31350017 -11.4375 19.5625 C-10.96183594 20.78066406 -10.48617187 21.99882813 -9.99609375 23.25390625 C-8.90744592 27.34807592 -8.99250174 29.90985783 -10 34 C-12.74331897 37.14674823 -14.37492386 37.89954133 -18.5 38.5625 C-22.96195728 37.84539972 -24.33507152 36.60549148 -27 33 C-29.00404898 27.0155588 -26.69019729 22.24276195 -24.5625 16.625 C-24.22412109 15.69816406 -23.88574219 14.77132812 -23.53710938 13.81640625 C-22.70387094 11.53967024 -21.85360311 9.26917934 -21 7 C-14.73 7 -8.46 7 -2 7 C-2 5.02 -2 3.04 -2 1 C-1.34 0.67 -0.68 0.34 0 0 Z M-19 19 C-19.66 21.31 -20.32 23.62 -21 26 C-19.35 26 -17.7 26 -16 26 C-16.66 23.69 -17.32 21.38 -18 19 C-18.33 19 -18.66 19 -19 19 Z M19 21 C18.67 22.65 18.34 24.3 18 26 C19.32 26 20.64 26 22 26 C21.67 24.35 21.34 22.7 21 21 C20.34 21 19.68 21 19 21 Z " fill="#fff" transform="translate(138,94)"/>
<path d="M0 0 C0.95486298 0.00444122 1.90972595 0.00888245 2.89352417 0.01345825 C4.51497849 0.01368484 4.51497849 0.01368484 6.16918945 0.01391602 C7.92548172 0.02939987 7.92548172 0.02939987 9.71725464 0.04519653 C11.51088943 0.04944138 11.51088943 0.04944138 13.34075928 0.05377197 C17.17208733 0.06499599 21.00318436 0.09010472 24.83444214 0.11550903 C27.42688669 0.12553596 30.01933489 0.1346623 32.61178589 0.14285278 C38.97775056 0.16494257 45.34357985 0.19844197 51.70944214 0.24050903 C52.09162981 1.89665561 52.42339316 3.56507928 52.70944214 5.24050903 C50.89828258 7.05166859 48.09665987 6.62250352 45.64694214 6.80300903 C44.54221558 6.8867981 43.43748901 6.97058716 42.29928589 7.05691528 C41.44463745 7.11750122 40.58998901 7.17808716 39.70944214 7.24050903 C40.20444214 8.72550903 40.20444214 8.72550903 40.70944214 10.24050903 C40.37944214 10.90050903 40.04944214 11.56050903 39.70944214 12.24050903 C29.80944214 12.24050903 19.90944214 12.24050903 9.70944214 12.24050903 C9.37944214 10.92050903 9.04944214 9.60050903 8.70944214 8.24050903 C9.03944214 7.91050903 9.36944214 7.58050903 9.70944214 7.24050903 C5.41944214 6.91050903 1.12944214 6.58050903 -3.29055786 6.24050903 C-3.62055786 4.92050903 -3.95055786 3.60050903 -4.29055786 2.24050903 C-2.29055786 0.24050903 -2.29055786 0.24050903 0 0 Z " fill="#fff" transform="translate(114.29055786132813,157.75949096679688)"/>
</svg>
