<?xml version="1.0" encoding="UTF-8"?>
<svg version="1.1" xmlns="http://www.w3.org/2000/svg" width="207" height="207">
<path d="M0 0 C4.48559748 2.48715036 7.05152752 5.72182675 8.875 10.5 C9.95462443 16.54174443 8.61800449 21.12828288 5.875 26.5 C6.74125 26.5928125 6.74125 26.5928125 7.625 26.6875 C10.83243327 27.84573979 11.99432004 29.71140558 13.875 32.5 C14.625 34.8125 14.625 34.8125 14.875 36.5 C16.195 35.84 17.515 35.18 18.875 34.5 C24.5155569 41.22308803 29.88324779 48.10022194 35.12304688 55.13671875 C39.08412866 60.45516487 43.09225196 65.73570081 47.125 71 C47.69831055 71.74846191 48.27162109 72.49692383 48.86230469 73.26806641 C50.19926089 75.0125111 51.53703472 76.75632912 52.875 78.5 C49.07735183 82.43456528 45.07773613 85.95557422 40.8125 89.375 C40.20083984 89.88546875 39.58917969 90.3959375 38.95898438 90.921875 C37.15234375 92.3671875 37.15234375 92.3671875 33.875 94.5 C33.22313721 94.33137451 32.57127441 94.16274902 31.8996582 93.98901367 C29.85652498 93.26761365 29.85652498 93.26761365 28.04394531 94.39624023 C27.13273926 95.09535522 27.13273926 95.09535522 26.203125 95.80859375 C25.20732422 96.55786133 25.20732422 96.55786133 24.19140625 97.32226562 C23.50949219 97.85529297 22.82757813 98.38832031 22.125 98.9375 C21.42761719 99.46666016 20.73023438 99.99582031 20.01171875 100.54101562 C18.29082245 101.84936829 16.58174468 103.17323952 14.875 104.5 C15.00829712 105.42232422 15.00829712 105.42232422 15.14428711 106.36328125 C15.2500708 107.17152344 15.35585449 107.97976562 15.46484375 108.8125 C15.5743335 109.61300781 15.68382324 110.41351563 15.79663086 111.23828125 C15.875 113.5 15.875 113.5 14.4375 116.5 C11.38232786 118.8845246 9.52653097 119.02425966 5.76171875 119.25390625 C3.20183951 119.58780354 1.86371417 120.92274393 -0.125 122.5 C-1.79166667 122.5 -3.45833333 122.5 -5.125 122.5 C-5.74375 122.974375 -6.3625 123.44875 -7 123.9375 C-9.89259605 126.06440886 -12.60820442 125.99760063 -16.125 126.5 C-17.115 127.304375 -17.115 127.304375 -18.125 128.125 C-20.125 129.5 -20.125 129.5 -23.4375 129.6875 C-28.74437304 127.97850699 -30.8362839 124.85805324 -34.125 120.5 C-35.33349609 118.96859375 -35.33349609 118.96859375 -36.56640625 117.40625 C-43.125 108.97760178 -43.125 108.97760178 -43.125 105.5 C-41.145 104.51 -41.145 104.51 -39.125 103.5 C-37.18648147 105.91585122 -35.24936757 108.33282502 -33.3125 110.75 C-32.76529297 111.43191406 -32.21808594 112.11382812 -31.65429688 112.81640625 C-30.85668945 113.81220703 -30.85668945 113.81220703 -30.04296875 114.828125 C-29.52911621 115.46685547 -29.01526367 116.10558594 -28.48583984 116.76367188 C-27.41387966 118.13141153 -26.4068239 119.55002299 -25.42578125 120.984375 C-24.99652344 121.48453125 -24.56726563 121.9846875 -24.125 122.5 C-23.135 122.5 -22.145 122.5 -21.125 122.5 C-22.18359195 119.22798851 -23.49938568 116.92527118 -25.75 114.375 C-28.125 111.5 -28.125 111.5 -28.125 108.5 C-26.145 107.51 -26.145 107.51 -24.125 106.5 C-23.36574219 107.4384375 -22.60648438 108.376875 -21.82421875 109.34375 C-20.82077816 110.56288342 -19.81684634 111.78161264 -18.8125 113 C-18.31298828 113.62003906 -17.81347656 114.24007812 -17.29882812 114.87890625 C-15.97347822 116.47634786 -14.55395866 117.99452691 -13.125 119.5 C-12.135 119.5 -11.145 119.5 -10.125 119.5 C-12.72662336 114.69700302 -15.56996002 110.51094429 -19.05078125 106.296875 C-19.40527344 105.70390625 -19.75976562 105.1109375 -20.125 104.5 C-19.63 103.015 -19.63 103.015 -19.125 101.5 C-17.0625 100.8125 -17.0625 100.8125 -15.125 100.5 C-14.64873169 101.1815918 -14.64873169 101.1815918 -14.1628418 101.87695312 C-12.72291801 103.92535829 -11.26801427 105.96264711 -9.8125 108 C-9.31298828 108.71542969 -8.81347656 109.43085938 -8.29882812 110.16796875 C-7.81220703 110.84472656 -7.32558594 111.52148438 -6.82421875 112.21875 C-6.15652466 113.16137695 -6.15652466 113.16137695 -5.4753418 114.12304688 C-5.029729 114.57744141 -4.58411621 115.03183594 -4.125 115.5 C-3.135 115.5 -2.145 115.5 -1.125 115.5 C-2.12514013 110.41606898 -5.47398714 107.06823928 -8.70703125 103.18945312 C-9.92003257 101.6827595 -11.03102039 100.09521362 -12.125 98.5 C-11.63 97.015 -11.63 97.015 -11.125 95.5 C-9.0625 94.8125 -9.0625 94.8125 -7.125 94.5 C-6.71137207 95.04527344 -6.29774414 95.59054688 -5.87158203 96.15234375 C-4.00417855 98.60655558 -2.12725808 101.05331921 -0.25 103.5 C0.40097656 104.35851562 1.05195312 105.21703125 1.72265625 106.1015625 C2.34785156 106.91367188 2.97304687 107.72578125 3.6171875 108.5625 C4.1932373 109.31660156 4.76928711 110.07070312 5.36279297 110.84765625 C5.86182129 111.39292969 6.36084961 111.93820313 6.875 112.5 C7.535 112.5 8.195 112.5 8.875 112.5 C8.03104641 106.47185463 4.73518821 102.86417936 1.0625 98.1875 C0.43279297 97.35154297 -0.19691406 96.51558594 -0.84570312 95.65429688 C-1.45994141 94.86474609 -2.07417969 94.07519531 -2.70703125 93.26171875 C-3.26624268 92.53944092 -3.8254541 91.81716309 -4.40161133 91.07299805 C-6.22851217 89.0505698 -6.22851217 89.0505698 -10.125 89.5 C-11.64747479 89.42348047 -13.16874787 89.31855983 -14.6875 89.1875 C-15.45191406 89.12949219 -16.21632812 89.07148438 -17.00390625 89.01171875 C-19.52122809 88.40440906 -20.48314406 87.45658871 -22.125 85.5 C-22.7025 85.78875 -23.28 86.0775 -23.875 86.375 C-24.6175 86.74625 -25.36 87.1175 -26.125 87.5 C-26.74375 87.891875 -27.3625 88.28375 -28 88.6875 C-31.15935108 89.89548718 -32.92188101 89.54591641 -36.125 88.5 C-39.24475685 85.58370556 -40.89081042 83.64752893 -41.75 79.4375 C-40.54122242 73.75624537 -34.84962984 70.34133192 -30.5 66.8125 C-29.55898437 66.04550781 -28.61796875 65.27851562 -27.6484375 64.48828125 C-25.125 62.5 -25.125 62.5 -22.125 60.5 C-25.26841978 61.95449156 -27.91467484 63.71972734 -30.6796875 65.80078125 C-31.54207031 66.44853516 -32.40445313 67.09628906 -33.29296875 67.76367188 C-34.18628906 68.43978516 -35.07960937 69.11589844 -36 69.8125 C-36.88558594 70.47701172 -37.77117187 71.14152344 -38.68359375 71.82617188 C-42.40802858 74.63198679 -46.09886871 77.43681407 -49.6328125 80.48046875 C-52.125 82.5 -52.125 82.5 -54.125 82.5 C-51.34774464 86.74232126 -48.43347815 90.82701422 -45.375 94.875 C-44.96378906 95.42027344 -44.55257812 95.96554688 -44.12890625 96.52734375 C-43.1290885 97.85268356 -42.12725841 99.17650492 -41.125 100.5 C-41.785 101.82 -42.445 103.14 -43.125 104.5 C-45.55793744 104.11501271 -46.83922567 103.79096937 -48.58886719 102.00952148 C-49.02875977 101.38634033 -49.46865234 100.76315918 -49.921875 100.12109375 C-50.40527344 99.44755859 -50.88867188 98.77402344 -51.38671875 98.08007812 C-51.87785156 97.37302734 -52.36898437 96.66597656 -52.875 95.9375 C-53.38160156 95.22658203 -53.88820313 94.51566406 -54.41015625 93.78320312 C-55.65812303 92.02898568 -56.89285497 90.26536641 -58.125 88.5 C-60.6 88.995 -60.6 88.995 -63.125 89.5 C-65.25551919 86.7542363 -67.37842392 84.00267783 -69.5 81.25 C-70.10328125 80.47269531 -70.7065625 79.69539063 -71.328125 78.89453125 C-71.90820312 78.14042969 -72.48828125 77.38632813 -73.0859375 76.609375 C-73.62009277 75.91811523 -74.15424805 75.22685547 -74.70458984 74.51464844 C-76.07241695 72.57458153 -77.12614426 70.64943641 -78.125 68.5 C-67.36449712 59.96393721 -56.48799102 51.58009672 -45.51269531 43.32177734 C-43.941 42.12259632 -42.38738414 40.8992793 -40.85449219 39.65087891 C-40.15743164 39.09190918 -39.46037109 38.53293945 -38.7421875 37.95703125 C-38.13745605 37.45792236 -37.53272461 36.95881348 -36.90966797 36.44458008 C-35.125 35.5 -35.125 35.5 -33.02392578 35.65893555 C-31.125 36.5 -31.125 36.5 -29.125 39.5 C-28.97804688 38.46939453 -28.97804688 38.46939453 -28.828125 37.41796875 C-28.67859375 36.51691406 -28.5290625 35.61585937 -28.375 34.6875 C-28.23578125 33.79417969 -28.0965625 32.90085938 -27.953125 31.98046875 C-26.93993877 28.94568924 -25.89154488 28.04209261 -23.125 26.5 C-22.135 26.5 -21.145 26.5 -20.125 26.5 C-20.599375 25.860625 -21.07375 25.22125 -21.5625 24.5625 C-23.86513484 20.04933571 -24.9399043 15.33918886 -23.51171875 10.36328125 C-22.6875 8.4375 -22.6875 8.4375 -21.125 5.5 C-18.65 6.49 -18.65 6.49 -16.125 7.5 C-16.455 8.82 -16.785 10.14 -17.125 11.5 C-14.79334966 11.83498301 -14.79334966 11.83498301 -12.125 11.5 C-9.81122853 9.60415891 -9.81122853 9.60415891 -8.125 7.5 C-5.125 8.5 -5.125 8.5 -3.6875 10 C-1.87306281 11.74185971 -0.56940923 12.07855013 1.875 12.5 C0.74085678 8.87648555 0.74085678 8.87648555 -1.8125 6.1875 C-6.59557729 4.76550405 -11.3398467 5.33996284 -16.125 6.5 C-16.785 5.18 -17.445 3.86 -18.125 2.5 C-12.43984359 -2.00891715 -6.78047679 -2.90958078 0 0 Z M-17.125 18.5 C-15.99085678 22.12351445 -15.99085678 22.12351445 -13.4375 24.8125 C-9.08689575 26.10592289 -5.47130122 26.0983561 -1.3125 24.25 C0.97187293 22.42250166 1.68405903 21.10821461 2.875 18.5 C-4.72054796 15.73152925 -9.72168803 14.93544239 -17.125 18.5 Z M-21.125 31.5 C-24.52543918 36.60065878 -23.78712633 42.55423936 -23.125 48.5 C-21.72219254 51.99304646 -19.93418075 54.71786509 -16.3359375 56.2734375 C-13.23555043 56.59114501 -10.94832814 55.78682465 -8 54.8125 C-6.94554688 54.47863281 -5.89109375 54.14476563 -4.8046875 53.80078125 C-1.72450593 52.30559107 -1.45212771 51.51514103 -0.125 48.5 C1.8203125 47.11328125 1.8203125 47.11328125 4 45.8125 C7.10648174 43.61738573 7.10648174 43.61738573 8.46875 40.18359375 C8.49901343 37.82682898 8.43388767 35.79052323 7.875 33.5 C6.12635285 31.28093556 6.12635285 31.28093556 4.0078125 31.49609375 C0.74552283 33.03164035 -0.38514581 35.5312256 -2.25 38.5625 C-3.4930808 40.57253821 -4.77382306 42.56097335 -6.125 44.5 C-6.785 44.5 -7.445 44.5 -8.125 44.5 C-10.07488576 41.75962002 -11.89270296 38.97369959 -13.671875 36.12109375 C-14.94725508 34.11061023 -14.94725508 34.11061023 -17.125 31.5 C-18.445 31.5 -19.765 31.5 -21.125 31.5 Z M-10.125 31.5 C-8.8160428 34.62197478 -8.8160428 34.62197478 -6.125 36.5 C-5.465 34.85 -4.805 33.2 -4.125 31.5 C-6.105 31.5 -8.085 31.5 -10.125 31.5 Z M-35.125 42.5 C-35.58124756 42.85602295 -36.03749512 43.2120459 -36.50756836 43.57885742 C-47.66594029 52.28202565 -58.86940602 60.92295243 -70.125 69.5 C-69.51140625 70.59441406 -68.8978125 71.68882813 -68.265625 72.81640625 C-67.74790527 73.73981812 -67.74790527 73.73981812 -67.21972656 74.68188477 C-65.73895587 77.14113975 -63.97951257 79.31432447 -62.125 81.5 C-57.94971325 79.70157674 -54.52967411 76.92181541 -50.9375 74.1875 C-50.24785156 73.66639648 -49.55820313 73.14529297 -48.84765625 72.60839844 C-46.60335992 70.9100393 -44.36351883 69.20596607 -42.125 67.5 C-41.33013184 66.89430176 -40.53526367 66.28860352 -39.71630859 65.66455078 C-34.84662914 61.9507211 -29.98368522 58.22819905 -25.125 54.5 C-26.03267102 53.05680308 -26.95156106 51.62065894 -27.875 50.1875 C-28.38546875 49.38699219 -28.8959375 48.58648437 -29.421875 47.76171875 C-31.13677599 45.48436171 -32.82629566 44.14934111 -35.125 42.5 Z M15.875 42.5 C13.28272011 44.15925575 13.28272011 44.15925575 10.6875 46.4375 C9.78644531 47.18902344 8.88539062 47.94054687 7.95703125 48.71484375 C7.26996094 49.30394531 6.58289063 49.89304687 5.875 50.5 C7.63961591 54.34772347 10.06105895 57.34060121 12.73046875 60.59765625 C13.10816406 61.22542969 13.48585937 61.85320312 13.875 62.5 C13.38 63.985 13.38 63.985 12.875 65.5 C11.885 65.5 10.895 65.5 9.875 65.5 C8.05078125 63.53125 8.05078125 63.53125 6.1875 61 C5.56488281 60.1646875 4.94226563 59.329375 4.30078125 58.46875 C3.83027344 57.8190625 3.35976562 57.169375 2.875 56.5 C1.37390232 56.9337188 -0.12581177 57.37222635 -1.625 57.8125 C-2.87796875 58.17794922 -2.87796875 58.17794922 -4.15625 58.55078125 C-5.1359375 58.86402344 -6.115625 59.17726563 -7.125 59.5 C-7.73255127 59.6868335 -8.34010254 59.87366699 -8.96606445 60.06616211 C-14.52681922 61.93247551 -18.7251331 64.83345385 -23.3125 68.4375 C-23.99763672 68.96279297 -24.68277344 69.48808594 -25.38867188 70.02929688 C-29.00282068 72.80860861 -32.57492436 75.63925944 -36.125 78.5 C-35.465 80.15 -34.805 81.8 -34.125 83.5 C-30.73867259 83.11299115 -29.23515161 82.59134524 -26.5625 80.375 C-24.125 78.5 -24.125 78.5 -22.0625 78.5 C-20.125 79.5 -20.125 79.5 -18.25 81.5625 C-16.25378574 83.75856624 -16.25378574 83.75856624 -13.328125 83.83984375 C-9.50743348 83.4344777 -7.79105959 82.3013424 -4.75 80 C-3.43902344 79.02546875 -3.43902344 79.02546875 -2.1015625 78.03125 C-1.44929688 77.5259375 -0.79703125 77.020625 -0.125 76.5 C0.37 78.975 0.37 78.975 0.875 81.5 C-0.115 82.16 -1.105 82.82 -2.125 83.5 C-0.65369627 87.8573226 1.70580615 91.21934134 4.5 94.8125 C4.92023438 95.36228516 5.34046875 95.91207031 5.7734375 96.47851562 C6.80220039 97.82292168 7.8379009 99.16201413 8.875 100.5 C13.54699091 98.96906512 16.89670005 96.39242605 20.6875 93.375 C21.28498047 92.90707031 21.88246094 92.43914062 22.49804688 91.95703125 C23.96116792 90.80994435 25.41866297 89.65568766 26.875 88.5 C23.27201443 82.91735203 19.48188294 77.60516706 15.29296875 72.4453125 C13.875 70.5 13.875 70.5 12.875 67.5 C15.09765625 67.15625 15.09765625 67.15625 17.875 67.5 C20.12109375 69.84375 20.12109375 69.84375 22.3125 73 C23.09109181 74.09899661 23.86973784 75.19795481 24.6484375 76.296875 C25.38320312 77.35390625 26.11796875 78.4109375 26.875 79.5 C28.05478125 81.08909311 29.2409461 82.67349771 30.4375 84.25 C31.25 85.33333333 32.0625 86.41666667 32.875 87.5 C34.31819692 86.59232898 35.75434106 85.67343894 37.1875 84.75 C37.98800781 84.23953125 38.78851563 83.7290625 39.61328125 83.203125 C41.89063829 81.48822401 43.22565889 79.79870434 44.875 77.5 C44.51374023 77.03851563 44.15248047 76.57703125 43.78027344 76.1015625 C42.06021107 73.90231661 40.34239703 71.70132789 38.625 69.5 C37.9961792 68.69506104 37.3673584 67.89012207 36.71948242 67.06079102 C33.55795345 63.00028297 30.42838167 58.92284731 27.37890625 54.77734375 C26.83975586 54.04580078 26.30060547 53.31425781 25.74511719 52.56054688 C24.72251414 51.1667293 23.70601768 49.76840669 22.69628906 48.36523438 C19.98308537 44.54667049 19.98308537 44.54667049 15.875 42.5 Z " fill="#fff" transform="translate(116.125,39.5)"/>
<path d="M0 0 C0 1.32 0 2.64 0 4 C-1.875 4.625 -1.875 4.625 -4 5 C-4.66 4.34 -5.32 3.68 -6 3 C-6 2.01 -6 1.02 -6 0 C-3.50907189 -1.24546405 -2.58919267 -0.7767578 0 0 Z " fill="#fff" transform="translate(149,108)"/>
<path d="M0 0 C0.99 0 1.98 0 3 0 C3.33 1.65 3.66 3.3 4 5 C2.02 5.99 2.02 5.99 0 7 C-0.66 6.34 -1.32 5.68 -2 5 C-1.46428571 1.46428571 -1.46428571 1.46428571 0 0 Z " fill="#fff" transform="translate(61,102)"/>
</svg>
