<?xml version="1.0" encoding="UTF-8"?>
<svg version="1.1" xmlns="http://www.w3.org/2000/svg" width="235" height="216">
<path d="M0 0 C2.57285724 2.172635 4.48996919 3.97993838 6 7 C6.99 6.67 7.98 6.34 9 6 C13.19987818 5.61112239 15.29607238 5.54091677 18.875 7.875 C21.60044891 10.60044891 21.94669869 11.43500609 22.3125 15.3125 C21.92856948 19.84288017 21.18748743 20.7933685 18 24 C14.80030737 26.07262763 11.44575128 27.81018824 8.0625 29.5625 C6.06798808 30.62177519 4.07452344 31.68302431 2.08203125 32.74609375 C1.06834473 33.28476074 0.0546582 33.82342773 -0.98974609 34.37841797 C-5.6256545 36.87571754 -10.188274 39.49533425 -14.75 42.125 C-16.47769942 43.11487166 -18.20556246 44.10445781 -19.93359375 45.09375 C-22.46973954 46.54715101 -25.00456423 48.00263676 -27.53564453 49.46484375 C-29.95616587 50.86069821 -32.38347154 52.24401662 -34.8125 53.625 C-35.5230957 54.0389502 -36.23369141 54.45290039 -36.96582031 54.87939453 C-47.93807801 61.07509402 -58.47101547 60.48993232 -70.45703125 57.4765625 C-76.21260786 56.39794446 -82.16100034 56.29233463 -88 56 C-88.144375 56.804375 -88.28875 57.60875 -88.4375 58.4375 C-89 61 -89 61 -90 62 C-93.47208807 62.25098924 -96.9574062 62.18522096 -100.4375 62.1875 C-101.41783203 62.19974609 -102.39816406 62.21199219 -103.40820312 62.22460938 C-104.34470703 62.22654297 -105.28121094 62.22847656 -106.24609375 62.23046875 C-107.10904053 62.23457764 -107.9719873 62.23868652 -108.86108398 62.24291992 C-111 62 -111 62 -113 60 C-113.25396729 57.87475586 -113.25396729 57.87475586 -113.25878906 55.21484375 C-113.26509338 54.2204126 -113.27139771 53.22598145 -113.27789307 52.20141602 C-113.2738446 51.12432373 -113.26979614 50.04723145 -113.265625 48.9375 C-113.26753845 47.835271 -113.2694519 46.73304199 -113.27142334 45.59741211 C-113.27278612 43.26383232 -113.26908322 40.93024497 -113.26074219 38.59667969 C-113.25004421 35.01480153 -113.26063458 31.43342497 -113.2734375 27.8515625 C-113.27211592 25.58854055 -113.26955357 23.32551892 -113.265625 21.0625 C-113.26967346 19.98540771 -113.27372192 18.90831543 -113.27789307 17.79858398 C-113.27158875 16.80415283 -113.26528442 15.80972168 -113.25878906 14.78515625 C-113.25719788 13.90738525 -113.25560669 13.02961426 -113.25396729 12.12524414 C-113 10 -113 10 -111 8 C-108.87695312 7.74121094 -108.87695312 7.74121094 -106.28125 7.734375 C-105.34925781 7.73179688 -104.41726562 7.72921875 -103.45703125 7.7265625 C-102.48121094 7.73429687 -101.50539063 7.74203125 -100.5 7.75 C-99.52417969 7.74226563 -98.54835938 7.73453125 -97.54296875 7.7265625 C-96.61097656 7.72914062 -95.67898437 7.73171875 -94.71875 7.734375 C-93.86216797 7.73663086 -93.00558594 7.73888672 -92.12304688 7.74121094 C-90 8 -90 8 -88 10 C-87.875 13.125 -87.875 13.125 -88 16 C-87.51748779 15.70689941 -87.03497559 15.41379883 -86.5378418 15.11181641 C-81.39737508 12.23156936 -77.66145361 11.7790764 -71.8125 12.375 C-62.63903619 12.91307016 -56.01438928 9.83577963 -48.08129883 5.46826172 C-41.67902608 1.98620489 -41.67902608 1.98620489 -37.5390625 2.0703125 C-34.5107325 3.17914718 -32.987611 4.47726296 -31 7 C-31 7.66 -31 8.32 -31 9 C-30.27409668 8.72736328 -29.54819336 8.45472656 -28.80029297 8.17382812 C-25.49554206 6.93909762 -22.18542306 5.71943681 -18.875 4.5 C-17.73289062 4.07074219 -16.59078125 3.64148438 -15.4140625 3.19921875 C-14.30546875 2.79316406 -13.196875 2.38710937 -12.0546875 1.96875 C-11.03874512 1.59169922 -10.02280273 1.21464844 -8.97607422 0.82617188 C-5.78766418 -0.0589454 -3.29154554 -0.31944481 0 0 Z M-18.1875 10.25 C-19.29287109 10.64574219 -20.39824219 11.04148437 -21.53710938 11.44921875 C-23.11782227 12.03896484 -23.11782227 12.03896484 -24.73046875 12.640625 C-25.69364014 12.99672852 -26.65681152 13.35283203 -27.64916992 13.71972656 C-30.36302754 15.19770656 -30.80626761 16.23719179 -32 19 C-33.64363134 19.72159424 -35.31050386 20.39351421 -37 21 C-37.33 21.66 -37.66 22.32 -38 23 C-32.1937911 23.26797887 -28.30722364 22.70309585 -22.875 20.375 C-22.24263428 20.10864746 -21.61026855 19.84229492 -20.95874023 19.56787109 C-18.96653139 18.7251749 -16.98344898 17.86308269 -15 17 C-13.63988072 16.42056391 -12.27920737 15.84242657 -10.91796875 15.265625 C-7.60544775 13.85868961 -4.30080294 12.4342472 -1 11 C-1 9.35 -1 7.7 -1 6 C-7.24299001 5.6675709 -12.42802739 8.08468266 -18.1875 10.25 Z M-45.51953125 10.08984375 C-46.37740234 10.54423828 -47.23527344 10.99863281 -48.11914062 11.46679688 C-49.90404435 12.44143973 -51.68791324 13.4179803 -53.47070312 14.39648438 C-59.99352572 17.84572564 -64.6814328 18.77936799 -72 17.3125 C-76.34692503 16.72394149 -79.13811633 17.88689384 -83 20 C-83.94875 20.474375 -84.8975 20.94875 -85.875 21.4375 C-89.36595192 25.64717732 -88.90817492 30.69084098 -89 36 C-90.32 35.67 -91.64 35.34 -93 35 C-93.33 28.07 -93.66 21.14 -94 14 C-98.62 14 -103.24 14 -108 14 C-108 28.19 -108 42.38 -108 57 C-103.38 56.67 -98.76 56.34 -94 56 C-93.67 51.38 -93.34 46.76 -93 42 C-90.525 41.505 -90.525 41.505 -88 41 C-88 43.97 -88 46.94 -88 50 C-86.00839844 50.18175781 -86.00839844 50.18175781 -83.9765625 50.3671875 C-67.88918565 51.87975396 -67.88918565 51.87975396 -62.25 53.125 C-49.10101769 55.97547868 -39.56510977 50.0074436 -28.3125 43.5625 C-27.23685791 42.952854 -26.16121582 42.34320801 -25.05297852 41.71508789 C-22.81616832 40.44692485 -20.58074356 39.1763152 -18.34667969 37.90332031 C-15.08330438 36.04737678 -11.81277184 34.20483101 -8.5390625 32.3671875 C-6.50515962 31.224045 -4.4713035 30.0808193 -2.4375 28.9375 C-1.50526611 28.41422119 -0.57303223 27.89094238 0.38745117 27.35180664 C2.93323396 25.91500424 5.4696754 24.46383262 8 23 C8.7938208 22.54351074 9.5876416 22.08702148 10.40551758 21.61669922 C11.13536865 21.18244629 11.86521973 20.74819336 12.6171875 20.30078125 C13.25897949 19.92219971 13.90077148 19.54361816 14.56201172 19.15356445 C16.30334329 18.00828104 16.30334329 18.00828104 16.5625 15.25 C16.21615968 13.04466109 16.21615968 13.04466109 15 12 C9.50871014 11.42633041 5.56208582 13.10701634 0.64453125 15.24609375 C-0.13892166 15.57666275 -0.92237457 15.90723175 -1.72956848 16.24781799 C-4.21993082 17.30104896 -6.70372882 18.36883079 -9.1875 19.4375 C-11.68331178 20.49923559 -14.18036317 21.55801267 -16.67756653 22.61647034 C-18.2279097 23.27492539 -19.77717826 23.93591766 -21.32524109 24.59971619 C-29.52322722 28.11011098 -29.52322722 28.11011098 -34.3515625 28.140625 C-46.5900045 28.03718217 -46.5900045 28.03718217 -57.44140625 33.0390625 C-57.95574219 33.35617188 -58.47007813 33.67328125 -59 34 C-59.99 33.67 -60.98 33.34 -62 33 C-62 32.01 -62 31.02 -62 30 C-60.96101563 29.43152344 -59.92203125 28.86304688 -58.8515625 28.27734375 C-50.92632245 23.90305998 -43.26553226 19.43168397 -36 14 C-36.495 11.525 -36.495 11.525 -37 9 C-40.60295479 7.67712406 -42.21074913 8.27272287 -45.51953125 10.08984375 Z " fill="#fff" transform="translate(163,112)"/>
<path d="M0 0 C3.98578531 2.9995068 7.36252625 7.2571669 9.21875 11.90234375 C8.84765625 14.1484375 8.84765625 14.1484375 8.21875 15.90234375 C6.03125 15.90234375 6.03125 15.90234375 3.21875 14.90234375 C2.125 13.23046875 2.125 13.23046875 1.03125 11.15234375 C-2.01539534 5.87528828 -6.03476114 3.67363364 -11.78125 1.90234375 C-17.99702887 0.92681179 -23.50934888 1.37455644 -28.99609375 4.57421875 C-34.41518453 8.60592743 -37.74748275 13.12542514 -38.78125 19.90234375 C-38.75753542 27.34872181 -37.41339023 32.84336997 -32.46875 38.58984375 C-26.50779435 43.71903815 -21.71053922 44.46716061 -13.97265625 44.23828125 C-8.38617136 43.65023021 -4.86518261 42.14944782 -1.03515625 38.01953125 C3.16824513 32.39483588 4.47073559 26.80213188 5.21875 19.90234375 C6.20875 19.57234375 7.19875 19.24234375 8.21875 18.90234375 C11.15563119 21.32050307 11.15563119 21.32050307 11.43359375 23.8828125 C10.37719982 32.28932756 7.26632177 38.85477198 1.21875 44.90234375 C-6.64313222 50.11541978 -13.35885482 51.80090329 -22.78125 50.90234375 C-30.82948702 48.78378064 -36.80311238 45.0595361 -41.53125 38.15234375 C-45.62461922 31.11438957 -46.67861801 23.8194189 -44.78125 15.90234375 C-41.34509988 5.93587989 -36.1563219 0.64997632 -26.78125 -4.09765625 C-17.48278434 -7.14244795 -8.12998665 -5.00992598 0 0 Z " fill="#fff" transform="translate(144.78125,52.09765625)"/>
<path d="M0 0 C1.88671875 0.265625 1.88671875 0.265625 4 1 C5.01953125 2.671875 5.01953125 2.671875 5.8125 4.75 C7.92873037 9.47539793 10.63924616 11.31645918 15 14 C14.2421875 17.78125 14.2421875 17.78125 12.0625 19.75 C10 21 10 21 8 21 C7.71125 21.721875 7.4225 22.44375 7.125 23.1875 C6.08333333 25.79166667 5.04166667 28.39583333 4 31 C2.35 31 0.7 31 -1 31 C-1.21914062 30.39671875 -1.43828125 29.7934375 -1.6640625 29.171875 C-3.87065883 23.61053465 -5.68050785 21.07348435 -11 18 C-11.33 17.01 -11.66 16.02 -12 15 C-11.20335937 14.38125 -11.20335937 14.38125 -10.390625 13.75 C-5.3037742 9.59140665 -2.54977323 6.05571141 0 0 Z M1 11 C-0.32 12.65 -1.64 14.3 -3 16 C-1.35 17.65 0.3 19.3 2 21 C3.32 19.02 4.64 17.04 6 15 C4.35 13.68 2.7 12.36 1 11 Z " fill="#fff" transform="translate(167,81)"/>
<path d="M0 0 C2.25 0 2.25 0 5 1 C6.19998315 2.97109146 7.06500344 4.94385666 7.91015625 7.08984375 C9.25924396 9.45437383 10.57194826 9.8918628 13 11 C13.75 13.125 13.75 13.125 14 15 C13.0925 15.495 12.185 15.99 11.25 16.5 C7.27665704 19.09867928 5.76626074 22.71941514 4 27 C1.6875 26.875 1.6875 26.875 -1 26 C-4 21.13793103 -4 21.13793103 -4 18 C-4.804375 17.7525 -5.60875 17.505 -6.4375 17.25 C-9 16 -9 16 -9.8125 13.875 C-9.874375 13.25625 -9.93625 12.6375 -10 12 C-9.0925 11.505 -8.185 11.01 -7.25 10.5 C-3.27665704 7.90132072 -1.76626074 4.28058486 0 0 Z M1 10 C-0.485 11.98 -0.485 11.98 -2 14 C-1.34 14 -0.68 14 0 14 C0.33 14.99 0.66 15.98 1 17 C2.32 15.68 3.64 14.36 5 13 C3.68 12.01 2.36 11.02 1 10 Z " fill="#fff" transform="translate(86,42)"/>
<path d="M0 0 C1.32 0.33 2.64 0.66 4 1 C4.13481759 3.93902349 4.23399416 6.87189559 4.3125 9.8125 C4.3753418 11.06256836 4.3753418 11.06256836 4.43945312 12.33789062 C4.48603448 14.65764202 4.47129407 16.72713709 4 19 C1.65234375 21.12109375 1.65234375 21.12109375 -1 22 C-3.43028072 21.33719617 -5.2010972 20.7989028 -7 19 C-7.04080783 17.00041636 -7.04254356 14.99954746 -7 13 C-5.0625 12.4375 -5.0625 12.4375 -3 12 C-2.67 12.33 -2.34 12.66 -2 13 C-2.02320312 12.31292969 -2.04640625 11.62585938 -2.0703125 10.91796875 C-2.08835937 10.01691406 -2.10640625 9.11585937 -2.125 8.1875 C-2.14820312 7.29417969 -2.17140625 6.40085937 -2.1953125 5.48046875 C-2 3 -2 3 0 0 Z " fill="#fff" transform="translate(120,60)"/>
<path d="M0 0 C2.0625 0.4375 2.0625 0.4375 4 1 C4.90487275 4.53722984 5.28571809 6.3714202 3.75 9.75 C2 12 2 12 -1 14 C-5.07490752 14.33957563 -6.53001271 14.31332486 -10 12 C-9.67 10.35 -9.34 8.7 -9 7 C-8.01 6.67 -7.02 6.34 -6 6 C-6 4.68 -6 3.36 -6 2 C-4.7934375 1.7834375 -4.7934375 1.7834375 -3.5625 1.5625 C-1.07896294 1.25864751 -1.07896294 1.25864751 0 0 Z M-2 5 C-1 7 -1 7 -1 7 Z " fill="#fff" transform="translate(138,76)"/>
<path d="M0 0 C1.9375 0.0625 1.9375 0.0625 4 1 C4.66666667 3 5.33333333 5 6 7 C8.03243548 7.96877057 8.03243548 7.96877057 10 8 C10.1875 10.875 10.1875 10.875 10 14 C7 16 7 16 3.375 15.75 C2.26125 15.5025 1.1475 15.255 0 15 C-1.37252731 12.25494537 -1.13229255 9.99672588 -1.125 6.9375 C-1.12757812 5.85339844 -1.13015625 4.76929687 -1.1328125 3.65234375 C-1 1 -1 1 0 0 Z " fill="#fff" transform="translate(126,60)"/>
<path d="M0 0 C2.0625 0.4375 2.0625 0.4375 4 1 C3.67 2.65 3.34 4.3 3 6 C1.68 5.67 0.36 5.34 -1 5 C-1 1 -1 1 0 0 Z " fill="#fff" transform="translate(126,77)"/>
</svg>
